<?xml version="1.0" encoding="UTF-8" standalone="no"?>
<!-- Generator: Adobe Illustrator 16.0.0, SVG Export Plug-In . SVG Version: 6.00 Build 0)  -->

<svg
   xmlns:dc="http://purl.org/dc/elements/1.1/"
   xmlns:cc="http://creativecommons.org/ns#"
   xmlns:rdf="http://www.w3.org/1999/02/22-rdf-syntax-ns#"
   xmlns:svg="http://www.w3.org/2000/svg"
   xmlns="http://www.w3.org/2000/svg"
   xmlns:sodipodi="http://sodipodi.sourceforge.net/DTD/sodipodi-0.dtd"
   xmlns:inkscape="http://www.inkscape.org/namespaces/inkscape"
   version="1.1"
   id="Layer_1"
   x="0px"
   y="0px"
   width="126px"
   height="126px"
   viewBox="0 0 126 126"
   enable-background="new 0 0 126 126"
   xml:space="preserve"
   inkscape:version="0.48.4 r9939"
   sodipodi:docname="power48_2.svg"><metadata
   id="metadata9"><rdf:RDF><cc:Work
       rdf:about=""><dc:format>image/svg+xml</dc:format><dc:type
         rdf:resource="http://purl.org/dc/dcmitype/StillImage" /></cc:Work></rdf:RDF></metadata><defs
   id="defs7" /><sodipodi:namedview
   pagecolor="#ffffff"
   bordercolor="#666666"
   borderopacity="1"
   objecttolerance="10"
   gridtolerance="10"
   guidetolerance="10"
   inkscape:pageopacity="0"
   inkscape:pageshadow="2"
   inkscape:window-width="1920"
   inkscape:window-height="1033"
   id="namedview5"
   showgrid="false"
   inkscape:zoom="1.8730159"
   inkscape:cx="63"
   inkscape:cy="63"
   inkscape:window-x="-4"
   inkscape:window-y="-4"
   inkscape:window-maximized="1"
   inkscape:current-layer="Layer_1" />
<path
   d="m 124.56519,102.8493 c 0,-0.0996 -0.0156,-0.19931 -0.0571,-0.29385 l -7.5869,-17.139183 -5.79636,-28.247008 V 42.740398 h 7.56961 v 1.356858 h -1.17035 c -0.49478,0 -0.89614,0.39607 -0.89614,0.882426 0,0.486357 0.40136,0.882426 0.89614,0.882426 h 1.17035 v 0.809175 h -1.17035 c -0.49478,0 -0.89614,0.39607 -0.89614,0.882427 0,0.487207 0.40136,0.883277 0.89614,0.883277 h 1.17035 v 2.427524 c 0,0.324522 0.26727,0.587716 0.59771,0.587716 h 2.98684 c 0.3313,0 0.59772,-0.264046 0.59772,-0.587716 v -2.427524 h 1.36928 c 0.49392,0 0.89614,-0.39607 0.89614,-0.883277 0,-0.486357 -0.40222,-0.882427 -0.89614,-0.882427 h -1.36928 v -0.809175 h 1.36928 c 0.49392,0 0.89614,-0.396069 0.89614,-0.882426 0,-0.486356 -0.40222,-0.882426 -0.89614,-0.882426 h -1.36928 v -1.356858 h 2.73858 c 0.34254,0 0.6401,-0.229124 0.72487,-0.555349 0.084,-0.327077 -0.0684,-0.667782 -0.37022,-0.827914 L 111.12398,33.46385 v -9.940071 h 5.92696 v 1.209503 h -1.1712 c -0.49478,0 -0.89614,0.39607 -0.89614,0.882426 0,0.486357 0.40136,0.883277 0.89614,0.883277 h 1.1712 v 0.809176 h -1.1712 c -0.49478,0 -0.89614,0.396069 -0.89614,0.882426 0,0.487208 0.40136,0.883278 0.89614,0.883278 h 1.1712 v 2.427524 c 0,0.324521 0.26729,0.588568 0.59686,0.588568 h 2.9877 c 0.33044,0 0.59771,-0.264047 0.59771,-0.588568 v -2.427524 h 1.3693 c 0.49478,0 0.89614,-0.39607 0.89614,-0.883278 0,-0.486357 -0.40136,-0.882426 -0.89614,-0.882426 h -1.3693 v -0.809176 h 1.3693 c 0.49478,0 0.89614,-0.396069 0.89614,-0.883277 0,-0.487209 -0.40136,-0.882426 -0.89614,-0.882426 h -1.3693 v -1.209503 h 1.69367 c 0.33995,0 0.63491,-0.224866 0.72141,-0.548536 0.0865,-0.322818 -0.0589,-0.662671 -0.35465,-0.827061 l -12.16966,-6.775773 v -0.789584 c 0,-0.143948 -0.0433,-0.285341 -0.12457,-0.405438 L 105.59663,6.1222662 V 1.4401264 c 0,-0.4062908 -0.33476,-0.73592296 -0.74649,-0.73592296 -0.41347,0 -0.74736,0.32963216 -0.74736,0.73592296 v 4.6821398 l -5.403649,8.0542678 c -0.08044,0.120099 -0.124561,0.261492 -0.124561,0.40544 v 0.661819 l -12.219838,6.906093 c -0.2941,0.166093 -0.436825,0.505095 -0.350325,0.827061 0.08909,0.321966 0.38406,0.546832 0.722274,0.546832 h 2.486872 v 1.209503 h -1.171209 c -0.493914,0 -0.897003,0.39607 -0.897003,0.882426 0,0.486357 0.403089,0.883277 0.897003,0.883277 h 1.171209 v 0.809176 h -1.171209 c -0.493914,0 -0.897003,0.396069 -0.897003,0.882426 0,0.487208 0.403089,0.883278 0.897003,0.883278 h 1.171209 v 2.427524 c 0,0.324521 0.268149,0.588568 0.596849,0.588568 h 2.988571 c 0.329565,0 0.59685,-0.264047 0.59685,-0.588568 v -2.427524 h 1.370157 c 0.493915,0 0.896139,-0.39607 0.896139,-0.883278 0,-0.486357 -0.402224,-0.882426 -0.896139,-0.882426 h -1.370157 v -0.809176 h 1.370157 c 0.493915,0 0.896139,-0.396069 0.896139,-0.883277 0,-0.487209 -0.402224,-0.882426 -0.896139,-0.882426 h -1.370157 v -1.209503 h 5.177883 v 9.796974 L 83.67756,41.359691 c -0.299289,0.160983 -0.449799,0.501688 -0.364164,0.827913 0.08391,0.325374 0.381464,0.552794 0.724004,0.552794 h 2.934941 v 1.503361 h -1.172073 c -0.49305,0 -0.895274,0.39607 -0.895274,0.882426 0,0.486357 0.402224,0.883278 0.895274,0.883278 h 1.172073 v 0.809175 h -1.172073 c -0.49305,0 -0.895274,0.396069 -0.895274,0.882426 0,0.486357 0.402224,0.882427 0.895274,0.882427 h 1.172073 v 2.427523 c 0,0.325374 0.26642,0.588568 0.595984,0.588568 h 2.988571 c 0.329565,0 0.59685,-0.263194 0.59685,-0.588568 v -2.427523 h 1.370157 c 0.493915,0 0.896139,-0.39607 0.896139,-0.882427 0,-0.486357 -0.402224,-0.882426 -0.896139,-0.882426 h -1.370157 v -0.809175 h 1.370157 c 0.493915,0 0.896139,-0.396069 0.896139,-0.883278 0,-0.487208 -0.402224,-0.882426 -0.896139,-0.882426 h -1.370157 v -1.503361 h 7.419095 v 14.41864 l -6.687306,28.248711 -7.59123,17.148551 c -0.04239,0.0945 -0.05709,0.1942 -0.05709,0.29386 h -2.096758 v 2.15751 h 11.205195 v -2.15751 H 90.671941 L 102.39873,86.373648 h 4.00235 l 11.5832,16.476512 h -2.57683 v 2.15751 h 11.20433 v -2.15751 h -2.04659 z m -0.31832,-55.589449 c 0.16435,0 0.30016,0.131172 0.30016,0.293859 0,0.162686 -0.13494,0.294709 -0.30016,0.294709 h -6.7219 c -0.16435,0 -0.30016,-0.132023 -0.30016,-0.294709 0,-0.161836 0.13494,-0.293859 0.30016,-0.293859 h 6.7219 z m 0,-2.574879 c 0.16435,0 0.30016,0.132024 0.30016,0.29471 0,0.162687 -0.13494,0.293858 -0.30016,0.293858 h -6.7219 c -0.16435,0 -0.30016,-0.132022 -0.30016,-0.293858 0,-0.161835 0.13494,-0.29471 0.30016,-0.29471 h 6.7219 z m -1.64349,-16.789095 c 0.16435,0 0.29929,0.132023 0.29929,0.293858 0,0.161835 -0.13408,0.29471 -0.29929,0.29471 h -6.72277 c -0.16436,0 -0.2993,-0.132023 -0.2993,-0.29471 0,-0.162686 0.13408,-0.293858 0.2993,-0.293858 h 6.72277 z m 0,-2.574879 c 0.16435,0 0.29929,0.132023 0.29929,0.293859 0,0.162685 -0.13408,0.294709 -0.29929,0.294709 h -6.72277 c -0.16436,0 -0.2993,-0.132024 -0.2993,-0.294709 0,-0.161836 0.13408,-0.293859 0.2993,-0.293859 h 6.72277 z m -27.836534,2.574879 c 0.16435,0 0.298424,0.132023 0.298424,0.293858 0,0.161835 -0.13321,0.29471 -0.298424,0.29471 H 88.04321 c -0.164351,0 -0.298425,-0.132023 -0.298425,-0.29471 0,-0.162686 0.13321,-0.293858 0.298425,-0.293858 h 6.723636 z m 0,-2.574879 c 0.16435,0 0.298424,0.132023 0.298424,0.293859 0,0.162685 -0.13321,0.294709 -0.298424,0.294709 H 88.04321 c -0.164351,0 -0.298425,-0.132024 -0.298425,-0.294709 0,-0.161836 0.13321,-0.293859 0.298425,-0.293859 h 6.723636 z m -2.241212,22.085356 c 0.163484,0 0.298424,0.132024 0.298424,0.29471 0,0.161835 -0.134075,0.293859 -0.298424,0.293859 h -6.724501 c -0.163485,0 -0.298425,-0.132024 -0.298425,-0.293859 0,-0.162686 0.134074,-0.29471 0.298425,-0.29471 h 6.724501 z m 0,-2.574027 c 0.163484,0 0.298424,0.132024 0.298424,0.293858 0,0.162687 -0.134075,0.29471 -0.298424,0.29471 h -6.724501 c -0.163485,0 -0.298425,-0.132023 -0.298425,-0.29471 0,-0.161834 0.134074,-0.293858 0.298425,-0.293858 h 6.724501 z m 3.418475,40.069475 8.378381,-3.719648 8.00296,3.719648 H 95.944109 z m -0.541489,-7.864326 7.49954,3.485414 -9.302198,4.128494 1.802658,-7.613908 z m 10.37913,-55.282808 3.84837,-3.61914 v 3.916404 h -3.53266 l -0.31571,-0.297264 z m 3.81117,-5.211085 -4.67704,4.398503 -4.67619,-4.398503 h 9.35323 z m -9.52363,1.466735 3.98245,3.74435 -0.31572,0.297264 h -3.66673 v -4.041614 z m 5.86296,5.513461 3.64165,3.424937 -4.79383,6.038147 -4.67618,-5.891643 3.79821,-3.571441 h 2.03015 z m -5.86296,32.883153 c 0.1038,-0.04088 0.19981,-0.102212 0.26988,-0.199313 l 4.55162,-6.458917 4.45043,6.311562 c 0.0727,0.104766 0.17731,0.165241 0.29063,0.205275 v 0.243603 h -9.56256 v -0.10221 z m 5.54897,-7.690566 4.01272,-5.692331 v 11.385513 l -4.01272,-5.693182 z m -5.54897,-7.884768 4.71078,-5.934231 4.83188,6.087547 -0.19895,0.283638 h -9.04529 l -0.29929,-0.424178 v -0.01277 z m 8.30571,1.9088 -3.48507,4.944483 -3.48335,-4.944483 h 6.96842 z m 1.25512,-3.643841 -4.09145,-5.154868 4.09145,-5.154869 v 10.309737 z m -5.60865,-5.154868 -3.95218,4.978553 v -9.957106 l 3.95218,4.978553 z m 0.14186,14.774677 -4.09404,5.80817 v -11.61634 l 4.09404,5.80817 z m -4.247146,9.263771 h 9.849736 l 0.65654,3.196666 H 99.158445 l 0.757739,-3.196666 z m 6.298056,14.135003 5.95206,-2.436894 1.10893,5.40188 -7.06099,-2.964986 z m 6.54977,4.029689 -8.43028,3.741794 -8.009887,-3.723055 8.346377,-3.417272 8.09379,3.398533 z m -8.08687,-4.674474 -6.452029,-2.708605 6.509979,-3.193258 6.5688,3.188999 -6.62675,2.712864 z m 1.40216,-6.56198 4.64072,-2.27591 1.03281,5.029659 -5.67353,-2.753749 z m -1.3468,-0.653301 -3.91758,-1.901135 h 7.79364 l -3.87606,1.901135 z m -5.93303,-1.567245 4.58882,2.226508 -5.785978,2.838925 1.197158,-5.065433 z m -1.633983,6.907797 5.968493,2.505886 -7.266856,2.975207 1.298363,-5.481093 z m 17.959103,15.306176 -9.36966,-4.354211 7.91992,-3.516077 1.61669,7.87114 h -0.16695 z m 7.53587,-43.63325 H 111.12484 V 35.13586 l 11.53562,6.132692 z m -13.03034,-15.893893 -1.96787,-1.85088 h 1.96787 v 1.85088 z m 10.45784,-3.322727 h -8.96312 v -4.990477 l 8.96312,4.990477 z M 104.85014,7.6784368 109.63012,14.80258 v 0.542572 c -0.006,0.0085 -0.0138,0.01277 -0.0182,0.0213 h -9.4847 c -0.0156,-0.04258 -0.019,-0.08688 -0.0433,-0.126912 -0.004,-0.0069 -0.0112,-0.01022 -0.0156,-0.01703 v -0.41993 l 4.78174,-7.1241432 z M 89.529277,22.051932 98.57457,16.940505 v 5.111427 h -9.045293 z m 12.641093,1.471847 -2.10195,1.976941 v -1.976941 h 2.10195 z M 86.955041,41.268552 98.57457,34.997023 v 6.271529 H 86.955041 z m 2.416806,60.845678 h -3.252395 l 6.96843,-15.740582 h 7.487428 L 89.371847,102.11423 z m 26.343543,-15.741434 6.96756,15.740584 h -3.39858 L 108.21672,86.372796 h 7.49867 z"
   id="path3"
   inkscape:connector-curvature="0" />
<path
   inkscape:connector-curvature="0"
   d="m 50.568815,121.16011 c 0,-0.117 -0.018,-0.234 -0.066,-0.345 l -8.771,-20.12201 -6.701,-33.162999 v -16.94 h 8.751 v 1.593 h -1.353 c -0.572,0 -1.036,0.465 -1.036,1.036 0,0.571 0.464,1.036 1.036,1.036 h 1.353 v 0.95 h -1.353 c -0.572,0 -1.036,0.465 -1.036,1.036 0,0.572 0.464,1.037 1.036,1.037 h 1.353 v 2.85 c 0,0.381 0.309,0.69 0.691,0.69 h 3.453 c 0.383,0 0.691,-0.31 0.691,-0.69 v -2.85 h 1.583 c 0.571,0 1.036,-0.465 1.036,-1.037 0,-0.571 -0.465,-1.036 -1.036,-1.036 h -1.583 v -0.95 h 1.583 c 0.571,0 1.036,-0.465 1.036,-1.036 0,-0.571 -0.465,-1.036 -1.036,-1.036 h -1.583 v -1.593 h 3.166 c 0.396,0 0.74,-0.269 0.838,-0.652 0.097,-0.384 -0.079,-0.784 -0.428,-0.972 l -17.163,-9.267 v -11.67 h 6.852 v 1.42 h -1.354 c -0.572,0 -1.036,0.465 -1.036,1.036 0,0.571 0.464,1.037 1.036,1.037 h 1.354 v 0.95 h -1.354 c -0.572,0 -1.036,0.465 -1.036,1.036 0,0.572 0.464,1.037 1.036,1.037 h 1.354 v 2.85 c 0,0.381 0.309,0.691 0.69,0.691 h 3.454 c 0.382,0 0.691,-0.31 0.691,-0.691 v -2.85 h 1.583 c 0.572,0 1.036,-0.465 1.036,-1.037 0,-0.571 -0.464,-1.036 -1.036,-1.036 h -1.583 v -0.95 h 1.583 c 0.572,0 1.036,-0.465 1.036,-1.037 0,-0.572 -0.464,-1.036 -1.036,-1.036 h -1.583 v -1.42 h 1.958 c 0.393,0 0.734,-0.264 0.834,-0.644 0.1,-0.379 -0.068,-0.778 -0.41,-0.971 l -14.069,-7.954999 v -0.927 c 0,-0.169 -0.05,-0.335 -0.144,-0.476 l -6.246,-9.457 v -5.497 c 0,-0.477 -0.387,-0.864 -0.863,-0.864 -0.478,0 -0.864,0.387 -0.864,0.864 v 5.497 l -6.247,9.456 c -0.093,0.141 -0.144,0.307 -0.144,0.476 v 0.777 L 6.3948189,26.416101 c -0.34,0.195 -0.505,0.593 -0.405,0.971 0.103,0.378 0.444,0.642 0.835,0.642 h 2.875 v 1.42 h -1.354 c -0.571,0 -1.037,0.465 -1.037,1.036 0,0.571 0.466,1.037 1.037,1.037 h 1.354 v 0.95 h -1.354 c -0.571,0 -1.037,0.465 -1.037,1.036 0,0.572 0.466,1.037 1.037,1.037 h 1.354 v 2.85 c 0,0.381 0.3100001,0.691 0.6900001,0.691 h 3.454996 c 0.381,0 0.69,-0.31 0.69,-0.691 v -2.85 h 1.584 c 0.571,0 1.036,-0.465 1.036,-1.037 0,-0.571 -0.465,-1.036 -1.036,-1.036 h -1.584 v -0.95 h 1.584 c 0.571,0 1.036,-0.465 1.036,-1.037 0,-0.572 -0.465,-1.036 -1.036,-1.036 h -1.584 v -1.42 h 5.986 v 11.502 l -17.220996,9.438 c -0.3460001,0.189 -0.5200001,0.589 -0.4210001,0.972 0.097,0.382 0.4410001,0.649 0.8370001,0.649 h 3.3929999 v 1.765 h -1.355 c -0.5699999,0 -1.0349999,0.465 -1.0349999,1.036 0,0.571 0.465,1.037 1.0349999,1.037 h 1.355 v 0.95 h -1.355 c -0.5699999,0 -1.0349999,0.465 -1.0349999,1.036 0,0.571 0.465,1.036 1.0349999,1.036 h 1.355 v 2.85 c 0,0.382 0.308,0.691 0.689,0.691 h 3.4550001 c 0.381,0 0.69,-0.309 0.69,-0.691 v -2.85 h 1.584 c 0.570996,0 1.035996,-0.465 1.035996,-1.036 0,-0.571 -0.465,-1.036 -1.035996,-1.036 h -1.584 v -0.95 h 1.584 c 0.570996,0 1.035996,-0.465 1.035996,-1.037 0,-0.572 -0.465,-1.036 -1.035996,-1.036 h -1.584 v -1.765 h 8.576996 v 16.928 l -7.730996,33.164999 -8.776,20.13301 c -0.049,0.111 -0.066,0.228 -0.066,0.345 H 1.5228189 v 2.533 H 14.476815 v -2.533 H 11.385819 L 24.942815,101.8171 h 4.627 l 13.391,19.34401 h -2.979 v 2.533 h 12.953 v -2.533 h -2.366 z m -0.368,-65.264009 c 0.19,0 0.347,0.154 0.347,0.345 0,0.191 -0.156,0.346 -0.347,0.346 h -7.771 c -0.19,0 -0.347,-0.155 -0.347,-0.346 0,-0.19 0.156,-0.345 0.347,-0.345 h 7.771 z m 0,-3.023 c 0.19,0 0.347,0.155 0.347,0.346 0,0.191 -0.156,0.345 -0.347,0.345 h -7.771 c -0.19,0 -0.347,-0.155 -0.347,-0.345 0,-0.19 0.156,-0.346 0.347,-0.346 h 7.771 z m -1.9,-19.711 c 0.19,0 0.346,0.155 0.346,0.345 0,0.19 -0.155,0.346 -0.346,0.346 h -7.772 c -0.19,0 -0.346,-0.155 -0.346,-0.346 0,-0.191 0.155,-0.345 0.346,-0.345 h 7.772 z m 0,-3.023 c 0.19,0 0.346,0.155 0.346,0.345 0,0.191 -0.155,0.346 -0.346,0.346 h -7.772 c -0.19,0 -0.346,-0.155 -0.346,-0.346 0,-0.19 0.155,-0.345 0.346,-0.345 h 7.772 z m -32.181,3.023 c 0.19,0 0.345,0.155 0.345,0.345 0,0.19 -0.154,0.346 -0.345,0.346 H 8.3468189 c -0.19,0 -0.345,-0.155 -0.345,-0.346 0,-0.191 0.154,-0.345 0.345,-0.345 h 7.7729961 z m 0,-3.023 c 0.19,0 0.345,0.155 0.345,0.345 0,0.191 -0.154,0.346 -0.345,0.346 H 8.3468189 c -0.19,0 -0.345,-0.155 -0.345,-0.346 0,-0.19 0.154,-0.345 0.345,-0.345 h 7.7729961 z m -2.590996,25.929 c 0.189,0 0.344996,0.155 0.344996,0.346 0,0.19 -0.154996,0.345 -0.344996,0.345 H 5.7548189 c -0.189,0 -0.345,-0.155 -0.345,-0.345 0,-0.191 0.155,-0.346 0.345,-0.346 h 7.7740001 z m 0,-3.022 c 0.189,0 0.344996,0.155 0.344996,0.345 0,0.191 -0.154996,0.346 -0.344996,0.346 H 5.7548189 c -0.189,0 -0.345,-0.155 -0.345,-0.346 0,-0.19 0.155,-0.345 0.345,-0.345 h 7.7740001 z m 3.951996,47.042999 9.686,-4.366999 9.252,4.366999 h -18.938 z m -0.626,-9.232999 8.67,4.092 -10.754,4.847 2.084,-8.939 z m 11.999,-64.904 4.449,-4.249 v 4.598 h -4.084 l -0.365,-0.349 z m 4.406,-6.117999 -5.407,5.163999 -5.406,-5.163999 h 10.813 z m -11.01,1.721999 4.604,4.396 -0.365,0.349 h -4.239 v -4.745 z m 6.778,6.473 4.21,4.021 -5.542,7.089 -5.406,-6.917 4.391,-4.193 h 2.347 z m -6.778,38.606 c 0.12,-0.048 0.231,-0.12 0.312,-0.234 l 5.262,-7.583 5.145,7.41 c 0.084,0.123 0.205,0.194 0.336,0.241 v 0.286 h -11.055 v -0.12 z m 6.415,-9.029 4.639,-6.683 v 13.367 l -4.639,-6.684 z m -6.415,-9.257 5.446,-6.967 5.586,7.147 -0.23,0.333 h -10.457 l -0.346,-0.498 v -0.015 z m 9.602,2.241 -4.029,5.805 -4.027,-5.805 h 8.056 z m 1.451,-4.278 -4.73,-6.052 4.73,-6.052 v 12.104 z m -6.484,-6.052 -4.569,5.845 v -11.69 l 4.569,5.845 z m 0.164,17.346 -4.733,6.819 v -13.638 l 4.733,6.819 z m -4.91,10.876 h 11.387 l 0.759,3.753 h -13.022 l 0.876,-3.753 z m 7.281,16.595 6.881,-2.861 1.282,6.342 -8.163,-3.481 z m 7.572,4.731 -9.746,4.393 -9.26,-4.371 9.649,-4.012 9.357,3.99 z m -9.349,-5.488 -7.459,-3.18 7.526,-3.749 7.594,3.744 -7.661,3.185 z m 1.621,-7.704 5.365,-2.672 1.194,5.905 -6.559,-3.233 z m -1.557,-0.767 -4.529,-2.232 h 9.01 l -4.481,2.232 z m -6.859,-1.84 5.305,2.614 -6.689,3.333 1.384,-5.947 z m -1.889,8.11 6.9,2.942 -8.401,3.493 1.501,-6.435 z m 20.762,17.969999 -10.832,-5.111999 9.156,-4.128 1.869,9.240999 h -0.193 z m 8.712,-51.226999 h -13.336 v -7.2 l 13.336,7.2 z m -15.064,-18.66 -2.275,-2.173 h 2.275 v 2.173 z m 12.09,-3.901 h -10.362 v -5.858999 l 10.362,5.858999 z m -17.616,-16.874999 5.526,8.364 v 0.637 c -0.006,0.01 -0.016,0.015 -0.021,0.025 h -10.965 c -0.018,-0.05 -0.022,-0.102 -0.05,-0.149 -0.005,-0.008 -0.013,-0.012 -0.018,-0.02 v -0.493 l 5.528,-8.364 z M 10.064819,26.301101 20.521815,20.300102 v 6.000999 H 10.064819 z m 14.613996,1.728 -2.43,2.321 v -2.321 h 2.43 z m -17.5899961,20.833 13.4329961,-7.363 v 7.363 H 7.0888189 z m 2.794,71.435009 h -3.76 L 14.178815,101.8171 h 8.656 L 9.8828189,120.29711 z m 30.4549961,-18.48101 8.055,18.48001 h -3.929 l -12.795,-18.48001 h 8.669 z"
   id="path3-1" /><path
   style="fill:none;stroke:#000000;stroke-width:1px;stroke-linecap:butt;stroke-linejoin:miter;stroke-opacity:1"
   d="M 46.983051,59.79661 121.19492,49.652542"
   id="path3020"
   inkscape:connector-curvature="0" /><path
   style="fill:none;stroke:#000000;stroke-width:1px;stroke-linecap:butt;stroke-linejoin:miter;stroke-opacity:1"
   d="M 7.4745763,58.728814 88.627119,49.118644"
   id="path3022"
   inkscape:connector-curvature="0" /><path
   style="fill:none;stroke:#000000;stroke-width:1.24957836px;stroke-linecap:butt;stroke-linejoin:miter;stroke-opacity:1"
   d="M 42.836653,37.78199 118.93453,31.090891"
   id="path3024"
   inkscape:connector-curvature="0" /><path
   style="fill:none;stroke:#000000;stroke-width:1px;stroke-linecap:butt;stroke-linejoin:miter;stroke-opacity:1"
   d="M 12.813559,34.70339 91.29661,30.432203"
   id="path3026"
   inkscape:connector-curvature="0" /></svg>