<?xml version="1.0" encoding="UTF-8" standalone="no"?>
<!-- Created with Inkscape (http://www.inkscape.org/) -->

<svg
   xmlns:dc="http://purl.org/dc/elements/1.1/"
   xmlns:cc="http://creativecommons.org/ns#"
   xmlns:rdf="http://www.w3.org/1999/02/22-rdf-syntax-ns#"
   xmlns:svg="http://www.w3.org/2000/svg"
   xmlns="http://www.w3.org/2000/svg"
   xmlns:xlink="http://www.w3.org/1999/xlink"
   xmlns:sodipodi="http://sodipodi.sourceforge.net/DTD/sodipodi-0.dtd"
   xmlns:inkscape="http://www.inkscape.org/namespaces/inkscape"
   height="1052.3622"
   id="svg1"
   version="1.0"
   width="744.09448"
   x="0.0000000"
   y="0.0000000"
   inkscape:version="0.48.4 r9939"
   sodipodi:docname="coffe_tea.svg">
  <sodipodi:namedview
     pagecolor="#ffffff"
     bordercolor="#666666"
     borderopacity="1"
     objecttolerance="10"
     gridtolerance="10"
     guidetolerance="10"
     inkscape:pageopacity="0"
     inkscape:pageshadow="2"
     inkscape:window-width="1920"
     inkscape:window-height="1033"
     id="namedview50"
     showgrid="false"
     inkscape:zoom="0.84"
     inkscape:cx="372.04724"
     inkscape:cy="669.85806"
     inkscape:window-x="-4"
     inkscape:window-y="-4"
     inkscape:window-maximized="1"
     inkscape:current-layer="svg1" />
  <metadata
     id="metadata3">
    <rdf:RDF>
      <cc:Work
         rdf:about="">
        <dc:title>coffe,Tea?</dc:title>
        <dc:description />
        <dc:subject>
          <rdf:Bag>
            <rdf:li>food</rdf:li>
            <rdf:li>coffee</rdf:li>
            <rdf:li>beverage</rdf:li>
            <rdf:li>tea</rdf:li>
          </rdf:Bag>
        </dc:subject>
        <dc:publisher>
          <cc:Agent
             rdf:about="http://www.openclipart.org">
            <dc:title>Manolo Rei</dc:title>
          </cc:Agent>
        </dc:publisher>
        <dc:creator>
          <cc:Agent>
            <dc:title>Manolo Rei</dc:title>
          </cc:Agent>
        </dc:creator>
        <dc:rights>
          <cc:Agent>
            <dc:title>Manolo Rei</dc:title>
          </cc:Agent>
        </dc:rights>
        <dc:date />
        <dc:format>image/svg+xml</dc:format>
        <dc:type
           rdf:resource="http://purl.org/dc/dcmitype/StillImage" />
        <cc:license
           rdf:resource="http://web.resource.org/cc/PublicDomain" />
        <dc:language>en</dc:language>
      </cc:Work>
      <cc:License
         rdf:about="http://web.resource.org/cc/PublicDomain">
        <cc:permits
           rdf:resource="http://web.resource.org/cc/Reproduction" />
        <cc:permits
           rdf:resource="http://web.resource.org/cc/Distribution" />
        <cc:permits
           rdf:resource="http://web.resource.org/cc/DerivativeWorks" />
      </cc:License>
    </rdf:RDF>
  </metadata>
  <defs
     id="defs3">
    <linearGradient
       id="linearGradient4057">
      <stop
         id="stop4058"
         offset="0.0000000"
         style="stop-color:#ffffff;stop-opacity:0.79166669;" />
      <stop
         id="stop4059"
         offset="1.0000000"
         style="stop-color:#ffffff;stop-opacity:0.0000000;" />
    </linearGradient>
    <linearGradient
       id="linearGradient2188">
      <stop
         id="stop2189"
         offset="-2.2351741e-10"
         style="stop-color:#473f45;stop-opacity:0.0000000;" />
      <stop
         id="stop2191"
         offset="0.0099999998"
         style="stop-color:#67554f;stop-opacity:0.062500000;" />
      <stop
         id="stop2190"
         offset="1.0000000"
         style="stop-color:#e5dae5;stop-opacity:0.50000000;" />
    </linearGradient>
    <linearGradient
       id="linearGradient2814">
      <stop
         id="stop2815"
         offset="0.0000000"
         style="stop-color:#524d67;stop-opacity:0.10196079;" />
      <stop
         id="stop2816"
         offset="1.0000000"
         style="stop-color:#d7edea;stop-opacity:0.50000000;" />
    </linearGradient>
    <linearGradient
       id="linearGradient2186">
      <stop
         id="stop2187"
         offset="0.0000000"
         style="stop-color:#524d67;stop-opacity:0.10416666;" />
      <stop
         id="stop2188"
         offset="1.0000000"
         style="stop-color:#edeadd;stop-opacity:1.0000000;" />
    </linearGradient>
    <linearGradient
       id="linearGradient2167">
      <stop
         id="stop2168"
         offset="0.0000000"
         style="stop-color:#65171f;stop-opacity:1.0000000;" />
      <stop
         id="stop2169"
         offset="1.0000000"
         style="stop-color:#954d15;stop-opacity:1.0000000;" />
    </linearGradient>
    <linearGradient
       id="linearGradient1537">
      <stop
         id="stop1538"
         offset="0.0000000"
         style="stop-color:#524d67;stop-opacity:1.0000000;" />
      <stop
         id="stop1539"
         offset="1.0000000"
         style="stop-color:#edeadd;stop-opacity:1.0000000;" />
    </linearGradient>
    <linearGradient
       id="linearGradient1533">
      <stop
         id="stop1534"
         offset="0.0000000"
         style="stop-color:#000000;stop-opacity:1.0000000;" />
      <stop
         id="stop1535"
         offset="1.0000000"
         style="stop-color:#ffffff;stop-opacity:1.0000000;" />
    </linearGradient>
    <linearGradient
       id="linearGradient1536"
       x1="0.032408405"
       x2="0.85109818"
       xlink:href="#linearGradient1537"
       y1="-0.069361486"
       y2="0.45383555" />
    <linearGradient
       id="linearGradient1540"
       x1="0.94498384"
       x2="0.38834950"
       xlink:href="#linearGradient1537"
       y1="0.92028987"
       y2="0.36956522" />
    <linearGradient
       id="linearGradient2170"
       x1="0.18446602"
       x2="0.64077669"
       xlink:href="#linearGradient2167"
       y1="0.38000000"
       y2="0.67000002" />
    <linearGradient
       id="linearGradient2172"
       x1="1.0359281"
       x2="0.15568863"
       xlink:href="#linearGradient1537"
       y1="0.53906250"
       y2="0.48437500" />
    <linearGradient
       id="linearGradient2794"
       x1="-0.16504854"
       x2="1.0129449"
       xlink:href="#linearGradient1533"
       y1="1.2881356"
       y2="0.50000000" />
    <linearGradient
       id="linearGradient3418"
       x1="0.75555557"
       x2="0.44444445"
       xlink:href="#linearGradient1537"
       y1="0.81250000"
       y2="-0.86718750" />
    <linearGradient
       id="linearGradient1562"
       x1="-0.48704663"
       x2="1.1658031"
       xlink:href="#linearGradient2186"
       y1="0.93023258"
       y2="0.38759691" />
    <linearGradient
       id="linearGradient2813"
       spreadMethod="pad"
       x1="0.31746033"
       x2="0.39682540"
       xlink:href="#linearGradient2814"
       y1="0.25000000"
       y2="0.83593750" />
    <linearGradient
       id="linearGradient2187"
       x1="0.53932583"
       x2="0.80898875"
       xlink:href="#linearGradient2188"
       y1="0.32031250"
       y2="0.39062500" />
    <linearGradient
       id="linearGradient4056"
       x1="-2.8235295"
       x2="2.2941177"
       xlink:href="#linearGradient4057"
       y1="0.039062500"
       y2="1.1015625" />
  </defs>
  <path
     d="M 447.86525 285.65952 A 182.34514 79.975937 0 1 0 83.174973,285.65952 A 182.34514 79.975937 0 1 0 447.86525 285.65952 z"
     id="path1541"
     style="fill:url(#linearGradient2794);fill-opacity:1;fill-rule:evenodd;stroke:none;stroke-width:1.0000000pt;stroke-linecap:butt;stroke-linejoin:miter;stroke-opacity:1.0000000;"
     transform="matrix(1.173547,0.000000,0.000000,1.010268,109.4923,341.7351)" />
  <path
     d="M 157.68316,412.87377 C 276.27750,412.87377 394.87185,412.87377 513.46618,412.87377 C 459.47117,518.54798 495.04947,624.84720 441.68202,660.28027 C 388.31456,695.71334 281.57966,695.71334 228.83977,660.90526 C 174.84475,624.84720 210.42305,518.54798 157.68316,412.87377 z "
     id="path2171"
     style="fill:url(#linearGradient2172);fill-opacity:1;fill-rule:evenodd;stroke:none;stroke-width:1.0020473pt;stroke-linecap:butt;stroke-linejoin:miter;stroke-opacity:1.0000000;" />
  <path
     d="M 447.86525 285.65952 A 182.34514 79.975937 0 1 0 83.174973,285.65952 A 182.34514 79.975937 0 1 0 447.86525 285.65952 z"
     id="path908"
     style="fill:url(#linearGradient1540);fill-opacity:1;fill-rule:evenodd;stroke:none;stroke-width:1.0000000pt;stroke-linecap:butt;stroke-linejoin:miter;stroke-opacity:1.0000000;"
     transform="translate(69.50338,113.8550)" />
  <path
     d="M 447.86525 285.65952 A 182.34514 79.975937 0 1 0 83.174973,285.65952 A 182.34514 79.975937 0 1 0 447.86525 285.65952 z"
     id="path909"
     style="fill:url(#linearGradient1536);fill-opacity:1;fill-rule:evenodd;stroke:none;stroke-width:1.0000000pt;stroke-linecap:butt;stroke-linejoin:miter;stroke-opacity:1.0000000;"
     transform="matrix(0.877782,0.000000,0.000000,0.828013,103.0520,159.7855)" />
  <path
     d="M 477.49358,409.16792 C 477.49358,434.09674 432.41748,455.90557 340.99924,458.02303 C 252.64652,458.02303 198.66726,434.89832 198.66726,409.96949 C 198.66726,385.04066 247.88500,364.16115 336.23772,364.16115 C 424.59045,364.16115 477.49358,384.23909 477.49358,409.16792 z "
     id="path1542"
     style="fill:url(#linearGradient2170);fill-opacity:1;fill-rule:evenodd;stroke:none;stroke-width:1.0000000pt;stroke-linecap:butt;stroke-linejoin:miter;stroke-opacity:1.0000000;" />
  <path
     d="M 517.73110,423.50283 C 526.05076,420.84516 562.37899,421.53003 583.01177,445.03445 C 603.64455,468.53887 603.87898,499.92001 579.33716,528.52078 C 554.79534,557.12155 526.18755,566.23297 513.18428,572.33597 C 500.18101,578.43897 475.84740,586.17861 490.75448,600.12702 C 501.59582,610.27116 497.70287,623.94560 481.75179,620.82432 C 465.96035,617.73427 455.32141,610.27116 466.21266,581.93751 C 477.10390,553.60386 534.04533,536.85579 551.76187,512.31397 C 569.47841,487.77214 559.25355,455.05629 537.07880,450.82234 C 514.17193,446.44861 514.66188,453.69396 508.47101,468.53887 C 502.66390,482.46358 494.54631,479.56504 490.75448,468.53887 C 487.03554,457.72463 496.29980,439.29326 499.95408,433.10580 C 503.27103,427.48951 510.10249,425.93975 517.73110,423.50283 z "
     id="path2796"
     style="fill:url(#linearGradient3418);fill-opacity:1;fill-rule:evenodd;stroke:none;stroke-width:0.76092792pt;stroke-linecap:butt;stroke-linejoin:miter;stroke-opacity:1.0000000;" />
  <path
     d="M 520.27462,438.61353 C 529.37249,438.21671 537.31948,432.73894 560.08639,447.58329 C 583.38280,462.77287 580.50902,500.32982 565.63249,518.40650 C 551.13121,536.02721 541.87624,541.71396 516.81505,555.93621 C 492.07274,569.97749 473.30860,585.99599 467.89740,586.08478 C 462.42103,586.17464 476.62222,567.30146 486.38401,557.92726 C 495.75895,548.92454 536.04460,527.30732 548.44293,513.14716 C 561.16465,498.61765 559.45172,448.41033 530.44564,447.13214 C 501.46302,445.85498 510.70334,478.30548 502.61172,472.61762 C 494.02040,466.57851 511.93361,438.97734 520.27462,438.61353 z "
     id="path939"
     style="fill:url(#linearGradient1562);fill-opacity:1;fill-rule:evenodd;stroke:none;stroke-width:0.76092792pt;stroke-linecap:butt;stroke-linejoin:miter;stroke-opacity:1.0000000;" />
  <path
     d="M 334.17056,434.58316 C 328.67064,433.63259 290.34305,376.40837 296.01485,341.04722 C 301.68664,305.68608 365.48582,260.55334 368.20133,222.41629 C 370.90870,184.39358 317.94725,94.077957 340.47847,128.89290 C 362.30647,162.62125 408.28269,185.64316 402.95859,232.30638 C 397.61226,279.16435 353.66106,292.07247 329.01438,346.75063 C 303.75800,402.78139 339.67049,435.53372 334.17056,434.58316 z "
     id="path2191"
     style="fill:url(#linearGradient2813);fill-opacity:1;fill-rule:nonzero;stroke:none;stroke-width:0.68289323pt;stroke-linecap:butt;stroke-linejoin:miter;stroke-opacity:1.0000000;" />
  <path
     d="M 474.04268,454.04390 C 444.52127,526.41897 469.99539,623.79199 435.47439,649.02804 C 382.85962,682.12058 331.67331,684.50134 314.76992,684.02519 C 317.86491,616.88780 321.67412,549.75040 324.76911,482.61301 C 366.67046,484.27953 439.28360,474.51843 474.04268,454.04390 z "
     id="path1562"
     style="fill:url(#linearGradient2187);fill-opacity:1;fill-rule:evenodd;stroke:none;stroke-width:1.0000000pt;stroke-linecap:butt;stroke-linejoin:miter;stroke-opacity:1.0000000;" />
  <path
     d="M 215.34897,460.41947 C 219.69527,461.95346 227.10954,465.02143 237.59178,467.32241 C 231.96716,536.35181 234.77947,592.34233 239.12577,665.20670 C 234.01248,662.13872 228.89919,659.07075 223.78590,656.00278 C 217.13862,588.50736 213.55932,527.91489 215.34897,460.41947 z "
     id="path2813"
     style="fill:url(#linearGradient4056);fill-opacity:1.0000000;fill-rule:evenodd;stroke:none;stroke-width:1.0000000pt;stroke-linecap:butt;stroke-linejoin:miter;stroke-opacity:1.0000000;" />
</svg>
